{"title":"Behaddd.Telefilm.Hum.TV.720p.x264-HarryLala","uid":8560249,"size":915983259,"categoryP":"video","categoryS":"hd___tv_shows","magnet":"?xt=urn:btih:877b198584ce832a12b10f99db066cac88a31d5d&amp;dn=Behaddd.Telefilm.Hum.TV.720p.x264-HarryLala&amp;tr=udp%3A%2F%2Ftracker.openbittorrent.com%3A80&amp;tr=udp%3A%2F%2Fopen.demonii.com%3A1337&amp;tr=udp%3A%2F%2Ftracker.coppersurfer.tk%3A6969&amp;tr=udp%3A%2F%2Fexodus.desync.com%3A6969","seeders":2,"leechers":0,"uploader":"lala91","files":1,"time":1370865212,"description":"Behaddd.Telefilm.Hum.TV.720p.x264-HarryLala\n\nGeneral\nComplete name                    : Behaddd.Telefilm.Hum.TV.720p.x264-HarryLala.mp4\nFormat                           : MPEG-4\nFormat profile                   : Base Media / Version 2\nCodec ID                         : mp42\nFile size                        : 874 MiB\nDuration                         : 1h 20mn\nOverall bit rate                 : 1 522 Kbps\nEncoded date                     : UTC 2013-06-08 09:15:41\nTagged date                      : UTC 2013-06-08 09:15:41\ngsst                             : 0\ngstd                             : 4814703\ngssd                             : BADC23223HH1370805920773336\ngshh                             :\n\nVideo\nID                               : 1\nFormat                           : AVC\nFormat/Info                      : Advanced Video Codec\nFormat profile                   : &lt;a class=&quot;__cf_email__&quot; href=&quot;/cdn-cgi/l/email-protection&quot; data-cfemail=&quot;f7bf9e909fb7bbc4d9c6&quot;&gt;[email&amp;#160;protected]&lt;/a&gt;&lt;script cf-hash='f9e31' type=&quot;text/javascript&quot;&gt;\n/* &lt;![CDATA[ */!function(){try{var t=&quot;currentScript&quot;in document?document.currentScript:function(){for(var t=document.getElementsByTagName(&quot;script&quot;),e=t.length;e--;)if(t[e].getAttribute(&quot;cf-hash&quot;))return t[e]}();if(t&amp;&amp;t.previousSibling){var e,r,n,i,c=t.previousSibling,a=c.getAttribute(&quot;data-cfemail&quot;);if(a){for(e=&quot;&quot;,r=parseInt(a.substr(0,2),16),n=2;a.length-n;n+=2)i=parseInt(a.substr(n,2),16)^r,e+=String.fromCharCode(i);e=document.createTextNode(e),c.parentNode.replaceChild(e,c)}}}catch(u){}}();/* ]]&gt; */&lt;/script&gt;\nFormat settings, CABAC           : Yes\nFormat settings, ReFrames        : 1 frame\nCodec ID                         : avc1\nCodec ID/Info                    : Advanced Video Coding\nDuration                         : 1h 20mn\nBit rate mode                    : Variable\nBit rate                         : 1 328 Kbps\nMaximum bit rate                 : 3 990 Kbps\nWidth                            : 1 280 pixels\nHeight                           : 720 pixels\nDisplay aspect ratio             : 16:9\nFrame rate mode                  : Constant\nFrame rate                       : 25.000 fps\nColor space                      : YUV\nChroma subsampling               : 4:2:0\nBit depth                        : 8 bits\nScan type                        : Progressive\nBits/(Pixel*Frame)               : 0.058\nStream size                      : 762 MiB (87%)\nTagged date                      : UTC 2013-06-08 09:19:26\n\nAudio\nID                               : 2\nFormat                           : AAC\nFormat/Info                      : Advanced Audio Codec\nFormat profile                   : LC\nCodec ID                         : 40\nDuration                         : 1h 20mn\nBit rate mode                    : Variable\nBit rate                         : 192 Kbps\nMaximum bit rate                 : 203 Kbps\nChannel(s)                       : 2 channels\nChannel positions                : Front: L R\nSampling rate                    : 44.1 KHz\nCompression mode                 : Lossy\nStream size                      : 110 MiB (13%)\nTitle                            : IsoMedia File Produced by Google, 5-11-2011\nEncoded date                     : UTC 2013-06-08 09:18:04\nTagged date                      : UTC 2013-06-08 09:19:26\n\n","torrent":{"xt":"urn:btih:877b198584ce832a12b10f99db066cac88a31d5d","amp;dn":"Behaddd.Telefilm.Hum.TV.720p.x264-HarryLala","amp;tr":["udp%3A%2F%2Ftracker.openbittorrent.com%3A80","udp%3A%2F%2Fopen.demonii.com%3A1337","udp%3A%2F%2Ftracker.coppersurfer.tk%3A6969","udp%3A%2F%2Fexodus.desync.com%3A6969"],"infoHash":"877b198584ce832a12b10f99db066cac88a31d5d","infoHashBuffer":{"type":"Buffer","data":[135,123,25,133,132,206,131,42,18,177,15,153,219,6,108,172,136,163,29,93]},"announce":[],"urlList":[]}}